<svg xmlns="http://www.w3.org/2000/svg" xmlns:xlink="http://www.w3.org/1999/xlink" contentStyleType="text/css" data-diagram-type="DESCRIPTION" height="445px" preserveAspectRatio="none" style="width:1715px;height:445px;background:#F8FBFF;" version="1.1" viewBox="0 0 1715 445" width="1715px" zoomAndPan="magnify"><?plantuml 1.2026.6?><defs/><g><rect fill="#F8FBFF" height="445" style="stroke:none;stroke-width:1;" width="1715" x="0" y="0"/><g class="title" data-source-line="2"><text fill="#173B61" font-family="Microsoft YaHei" font-size="22" font-weight="700" lengthAdjust="spacing" textLength="195.1855" x="756.4072" y="33.2783">BiliAISub &#20840;&#26632;&#26550;&#26500;</text></g><!--cluster Browser--><g class="cluster" data-qualified-name="Browser" data-source-line="40" id="ent0002"><polygon fill="#EEF8FF" points="131,197.0361,141,187.0361,886,187.0361,886,427.0361,876,437.0361,131,437.0361,131,197.0361" style="stroke:#4FA8D8;stroke-width:1;stroke-linejoin:miter;stroke-miterlimit:10;"/><line style="stroke:#4FA8D8;stroke-width:1;" x1="876" x2="886" y1="197.0361" y2="187.0361"/><line style="stroke:#4FA8D8;stroke-width:1;" x1="131" x2="876" y1="197.0361" y2="197.0361"/><line style="stroke:#4FA8D8;stroke-width:1;" x1="876" x2="876" y1="197.0361" y2="437.0361"/><text fill="#173B61" font-family="Microsoft YaHei" font-size="14" font-weight="700" lengthAdjust="spacing" textLength="116.9697" x="446.0151" y="214.8496">&#27983;&#35272;&#22120; &#183; React 19</text></g><!--cluster Server--><g class="cluster" data-qualified-name="Server" data-source-line="49" id="ent0009"><polygon fill="#EEF8FF" points="975,116.0361,985,106.0361,1461.5,106.0361,1461.5,355.0361,1451.5,365.0361,975,365.0361,975,116.0361" style="stroke:#4FA8D8;stroke-width:1;stroke-linejoin:miter;stroke-miterlimit:10;"/><line style="stroke:#4FA8D8;stroke-width:1;" x1="1451.5" x2="1461.5" y1="116.0361" y2="106.0361"/><line style="stroke:#4FA8D8;stroke-width:1;" x1="975" x2="1451.5" y1="116.0361" y2="116.0361"/><line style="stroke:#4FA8D8;stroke-width:1;" x1="1451.5" x2="1451.5" y1="116.0361" y2="365.0361"/><text fill="#173B61" font-family="Microsoft YaHei" font-size="14" font-weight="700" lengthAdjust="spacing" textLength="202.6582" x="1112.9209" y="133.8496">Next.js 16 &#183; Node.js Runtime</text></g><!--cluster Bilibili--><g class="cluster" data-qualified-name="Bilibili" data-source-line="58" id="ent0016"><path d="M1577.2528,158.5617 C1581.0836,149.4576 1586.4508,149.5278 1592.6011,156.3225 C1596.3215,149.4284 1601.8091,150.1421 1606.0017,155.8191 C1608.5742,149.9842 1612.153,148.6352 1617.3952,152.7672 C1621.7607,145.2773 1626.3213,144.9151 1631.3492,152.1391 C1636.043,144.5552 1642.4487,147.2049 1645.9126,153.4356 C1650.8524,147.0151 1654.737,147.6754 1658.8114,154.2918 C1663.4834,147.8196 1669.0736,148.9956 1672.5454,155.5565 C1681.5949,149.885 1690.1077,151.9548 1691,164.0361 C1692.2934,164.0977 1692.5967,165.04 1692.0284,166.0515 C1698.75,170.2473 1698.9787,174.8461 1692.0795,179.0952 C1697.4259,182.1514 1697.8822,187.7418 1693.1134,191.6323 C1700.0566,195.4918 1700.4743,200.9142 1693.6411,205.3053 C1698.6434,209.3174 1698.4473,214.3188 1692.586,217.3817 C1698.914,220.8977 1699.1242,226.3893 1693.0991,230.3924 C1699.4452,233.0112 1699.7592,238.7459 1695.0739,243.0816 C1701.7465,247.6229 1699.6602,253.1988 1693.7567,256.5062 C1699.8084,261.1717 1700.8987,266.3366 1693.2782,270.5357 C1698.7661,273.3155 1699.4795,279.2647 1693.8207,282.5479 C1699.8598,287.4162 1699.294,292.6635 1691.7236,295.2924 C1698.7169,298.063 1699.4477,304.816 1693.2342,309.038 C1699.296,317.9208 1694.8584,327.3775 1684,328.0361 C1684.4516,328.071 1684.7048,328.3153 1684.4486,328.7781 C1681.3511,336.2373 1677.1645,335.8491 1671.8797,331.0144 C1668.3914,338.1501 1662.9695,336.7467 1658.8248,331.719 C1655.2693,337.6666 1648.9266,336.7168 1646.0535,330.9737 C1641.8522,338.2186 1637.8467,338.5778 1632.6845,331.8961 C1628.5404,338.2242 1622.0109,339.7306 1618.0303,331.729 C1614.9674,337.4894 1609.4212,338.6898 1605.8797,332.2038 C1599.8497,339.6533 1593.803,337.7998 1590.477,329.5508 C1579.3668,337.7442 1572.8018,332.8238 1570,321.0361 C1571.2909,321.1424 1571.7308,322.1523 1570.9197,323.1662 C1564.226,319.6263 1562.8754,312.8957 1570.0919,308.5672 C1564.2963,304.9158 1564.3261,300.4704 1570.1746,296.9015 C1563.185,293.6532 1562.8542,286.6055 1569.515,282.7221 C1563.1744,279.3923 1563.2188,272.7961 1569.096,269.0908 C1563.6686,265.7794 1563.1696,259.834 1568.8784,256.3327 C1562.5632,253.3943 1561.6456,246.9639 1567.1801,242.5639 C1561.256,237.7814 1560.9809,233.6043 1567.8591,229.4864 C1562.5466,225.647 1562.7188,220.0121 1568.764,216.9957 C1563.9854,213.6355 1563.1638,208.5135 1568.9288,205.3019 C1561.9494,200.9435 1562.7753,194.823 1569.652,191.1738 C1563.8826,185.7613 1564.1203,181.7524 1571.4341,178.1271 C1563.4809,170.1888 1565.0694,159.7271 1577,157.0361 C1577.8597,157.3722 1577.9665,157.9649 1577.2528,158.5617" fill="#F4EEFF" style="stroke:#9A7BCD;stroke-width:1;"/><text fill="#4C3970" font-family="Microsoft YaHei" font-size="14" font-weight="700" lengthAdjust="spacing" textLength="43.75" x="1608.625" y="176.8496">Bilibili</text></g><!--entity User--><g class="entity" data-qualified-name="User" data-source-line="38" id="ent0001"><ellipse cx="20" cy="347.5361" fill="#F1F1F1" rx="8" ry="8" style="stroke:#181818;stroke-width:0.5;"/><path d="M20,355.5361 L20,382.5361 M7,363.5361 L33,363.5361 M20,382.5361 L7,397.5361 M20,382.5361 L33,397.5361" fill="none" style="stroke:#181818;stroke-width:0.5;"/><text fill="#24364B" font-family="Microsoft YaHei" font-size="14" lengthAdjust="spacing" textLength="28" x="6" y="413.8496">&#29992;&#25143;</text></g><g class="entity" data-qualified-name="GMN39" data-source-line="88" id="ent0040"><path d="M1263,62.0361 L1263,90.3516 A8,8 0 0 0 1271,98.3516 L1372.5,98.3516 L1376.5,139.6924 L1380.5,98.3516 L1481.8354,98.3516 A8,8 0 0 0 1489.8354,90.3516 L1489.8354,64.0361 L1479.8354,54.0361 L1271,54.0361 A8,8 0 0 0 1263,62.0361" fill="#FEFFDD" style="stroke:#181818;stroke-width:0.5;"/><path d="M1479.8354,54.0361 L1479.8354,60.0361 A4,4 0 0 0 1483.8354,64.0361 L1489.8354,64.0361 L1479.8354,54.0361" fill="#FEFFDD" style="stroke:#181818;stroke-width:0.5;"/><text fill="#24364B" font-family="Microsoft YaHei" font-size="13" lengthAdjust="spacing" textLength="205.8354" x="1269" y="72.7915">B &#31449; Cookie &#21482;&#22312;&#26381;&#21153;&#31471;&#35299;&#23494;&#20351;&#29992;&#65292;</text><text fill="#24364B" font-family="Microsoft YaHei" font-size="13" lengthAdjust="spacing" textLength="182.7808" x="1269" y="89.9492">&#19981;&#20250;&#26292;&#38706;&#32473;&#27983;&#35272;&#22120; JavaScript&#12290;</text></g><!--entity Page--><g class="entity" data-qualified-name="Browser.Page" data-source-line="41" id="ent0003"><rect fill="#FFFFFF" height="56.9551" rx="8" ry="8" style="stroke:#79BFE7;stroke-width:0.5;" width="107.3428" x="139" y="349.5361"/><text fill="#24364B" font-family="Microsoft YaHei" font-size="14" lengthAdjust="spacing" textLength="56" x="149" y="374.3496">&#39029;&#38754;&#20837;&#21475;</text><text fill="#24364B" font-family="Microsoft YaHei" font-size="14" lengthAdjust="spacing" textLength="87.3428" x="149" y="392.8271">app/page.tsx</text></g><!--entity Components--><g class="entity" data-qualified-name="Browser.Components" data-source-line="42" id="ent0004"><rect fill="#FFFFFF" height="56.9551" rx="8" ry="8" style="stroke:#79BFE7;stroke-width:0.5;" width="116.127" x="425" y="371.5361"/><text fill="#24364B" font-family="Microsoft YaHei" font-size="14" lengthAdjust="spacing" textLength="56" x="435" y="396.3496">&#20132;&#20114;&#32452;&#20214;</text><text fill="#24364B" font-family="Microsoft YaHei" font-size="14" lengthAdjust="spacing" textLength="96.127" x="435" y="414.8271">components/*</text></g><!--entity Workspace--><g class="entity" data-qualified-name="Browser.Workspace" data-source-line="43" id="ent0005"><rect fill="#FFFFFF" height="56.9551" rx="8" ry="8" style="stroke:#79BFE7;stroke-width:0.5;" width="237.6563" x="364" y="296.5361"/><text fill="#24364B" font-family="Microsoft YaHei" font-size="14" lengthAdjust="spacing" textLength="70" x="374" y="321.3496">&#24037;&#20316;&#21306;&#29366;&#24577;</text><text fill="#24364B" font-family="Microsoft YaHei" font-size="14" lengthAdjust="spacing" textLength="217.6563" x="374" y="339.8271">hooks/use-subtitle-workspace.ts</text></g><!--entity LocalApi--><g class="entity" data-qualified-name="Browser.LocalApi" data-source-line="44" id="ent0006"><rect fill="#FFFFFF" height="56.9551" rx="8" ry="8" style="stroke:#79BFE7;stroke-width:0.5;" width="115.0127" x="753" y="221.5361"/><text fill="#24364B" font-family="Microsoft YaHei" font-size="14" lengthAdjust="spacing" textLength="68.6738" x="763" y="246.3496">API &#23458;&#25143;&#31471;</text><text fill="#24364B" font-family="Microsoft YaHei" font-size="14" lengthAdjust="spacing" textLength="95.0127" x="763" y="264.8271">lib/local-api.ts</text></g><!--entity Model--><g class="entity" data-qualified-name="Browser.Model" data-source-line="45" id="ent0007"><rect fill="#FFFFFF" height="56.9551" rx="8" ry="8" style="stroke:#79BFE7;stroke-width:0.5;" width="113.7959" x="753.5" y="296.5361"/><text fill="#24364B" font-family="Microsoft YaHei" font-size="14" lengthAdjust="spacing" textLength="56" x="763.5" y="321.3496">&#23383;&#24149;&#27169;&#22411;</text><text fill="#24364B" font-family="Microsoft YaHei" font-size="14" lengthAdjust="spacing" textLength="93.7959" x="763.5" y="339.8271">lib/subtitles.ts</text></g><!--entity Export--><g class="entity" data-qualified-name="Browser.Export" data-source-line="46" id="ent0008"><rect fill="#FFFFFF" height="56.9551" rx="8" ry="8" style="stroke:#79BFE7;stroke-width:0.5;" width="135.2744" x="743" y="371.5361"/><text fill="#24364B" font-family="Microsoft YaHei" font-size="14" lengthAdjust="spacing" textLength="56" x="753" y="396.3496">&#25991;&#20214;&#23548;&#20986;</text><text fill="#24364B" font-family="Microsoft YaHei" font-size="14" lengthAdjust="spacing" textLength="115.2744" x="753" y="414.8271">TXT / SRT / JSON</text></g><!--entity AuthApi--><g class="entity" data-qualified-name="Server.AuthApi" data-source-line="50" id="ent0010"><rect fill="#FFFFFF" height="56.9551" rx="8" ry="8" style="stroke:#79BFE7;stroke-width:0.5;" width="120.543" x="1010" y="146.5361"/><text fill="#24364B" font-family="Microsoft YaHei" font-size="14" lengthAdjust="spacing" textLength="56" x="1020" y="171.3496">&#35748;&#35777;&#25509;&#21475;</text><text fill="#24364B" font-family="Microsoft YaHei" font-size="14" lengthAdjust="spacing" textLength="100.543" x="1020" y="189.8271">app/api/auth/*</text></g><!--entity ResolveApi--><g class="entity" data-qualified-name="Server.ResolveApi" data-source-line="51" id="ent0011"><rect fill="#FFFFFF" height="56.9551" rx="8" ry="8" style="stroke:#79BFE7;stroke-width:0.5;" width="175.0117" x="983" y="296.5361"/><text fill="#24364B" font-family="Microsoft YaHei" font-size="14" lengthAdjust="spacing" textLength="84" x="993" y="321.3496">&#35270;&#39057;&#35299;&#26512;&#25509;&#21475;</text><text fill="#24364B" font-family="Microsoft YaHei" font-size="14" lengthAdjust="spacing" textLength="155.0117" x="993" y="339.8271">app/api/videos/resolve</text></g><!--entity SubtitleApi--><g class="entity" data-qualified-name="Server.SubtitleApi" data-source-line="52" id="ent0012"><rect fill="#FFFFFF" height="56.9551" rx="8" ry="8" style="stroke:#79BFE7;stroke-width:0.5;" width="134.3447" x="1003.5" y="221.5361"/><text fill="#24364B" font-family="Microsoft YaHei" font-size="14" lengthAdjust="spacing" textLength="70" x="1013.5" y="246.3496">&#23383;&#24149;&#27969;&#25509;&#21475;</text><text fill="#24364B" font-family="Microsoft YaHei" font-size="14" lengthAdjust="spacing" textLength="114.3447" x="1013.5" y="264.8271">app/api/subtitles</text></g><!--entity BiliClient--><g class="entity" data-qualified-name="Server.BiliClient" data-source-line="53" id="ent0013"><rect fill="#FFFFFF" height="56.9551" rx="8" ry="8" style="stroke:#79BFE7;stroke-width:0.5;" width="144.0654" x="1304.5" y="224.5361"/><text fill="#24364B" font-family="Microsoft YaHei" font-size="14" lengthAdjust="spacing" textLength="82.9268" x="1314.5" y="249.3496">B &#31449;&#26381;&#21153;&#23553;&#35013;</text><text fill="#24364B" font-family="Microsoft YaHei" font-size="14" lengthAdjust="spacing" textLength="124.0654" x="1314.5" y="267.8271">lib/server/bilibili.ts</text></g><!--entity RequestGuard--><g class="entity" data-qualified-name="Server.RequestGuard" data-source-line="54" id="ent0014"><rect fill="#FFFFFF" height="56.9551" rx="8" ry="8" style="stroke:#79BFE7;stroke-width:0.5;" width="154.3398" x="1299.5" y="299.5361"/><text fill="#24364B" font-family="Microsoft YaHei" font-size="14" lengthAdjust="spacing" textLength="126" x="1309.5" y="324.3496">&#36755;&#20837;&#36793;&#30028;&#19982;&#24182;&#21457;&#25511;&#21046;</text><text fill="#24364B" font-family="Microsoft YaHei" font-size="14" lengthAdjust="spacing" textLength="134.3398" x="1309.5" y="342.8271">lib/server/request.ts</text></g><!--entity Session--><g class="entity" data-qualified-name="Server.Session" data-source-line="55" id="ent0015"><path d="M1302.5,150.0361 C1302.5,140.0361 1376.4844,140.0361 1376.4844,140.0361 C1376.4844,140.0361 1450.4688,140.0361 1450.4688,150.0361 L1450.4688,195.9912 C1450.4688,205.9912 1376.4844,205.9912 1376.4844,205.9912 C1376.4844,205.9912 1302.5,205.9912 1302.5,195.9912 L1302.5,150.0361" fill="#FFF2F7" style="stroke:#E77AA4;stroke-width:0.5;"/><path d="M1302.5,150.0361 C1302.5,160.0361 1376.4844,160.0361 1376.4844,160.0361 C1376.4844,160.0361 1450.4688,160.0361 1450.4688,150.0361" fill="none" style="stroke:#E77AA4;stroke-width:0.5;"/><text fill="#6C2D49" font-family="Microsoft YaHei" font-size="14" lengthAdjust="spacing" textLength="127.9688" x="1312.5" y="178.8496">AES-256-GCM &#20250;&#35805;</text><text fill="#6C2D49" font-family="Microsoft YaHei" font-size="14" lengthAdjust="spacing" textLength="111.9727" x="1312.5" y="197.3271">HttpOnly Cookie</text></g><!--entity BiliAuth--><g class="entity" data-qualified-name="Bilibili.BiliAuth" data-source-line="59" id="ent0017"><rect fill="#FFFFFF" height="38.4775" rx="8" ry="8" style="stroke:#79BFE7;stroke-width:0.5;" width="104" x="1578.5" y="178.0361"/><text fill="#24364B" font-family="Microsoft YaHei" font-size="14" lengthAdjust="spacing" textLength="84" x="1588.5" y="202.8496">&#25195;&#30721;&#30331;&#24405;&#25509;&#21475;</text></g><!--entity BiliVideo--><g class="entity" data-qualified-name="Bilibili.BiliVideo" data-source-line="60" id="ent0018"><rect fill="#FFFFFF" height="38.4775" rx="8" ry="8" style="stroke:#79BFE7;stroke-width:0.5;" width="120.8506" x="1570" y="234.0361"/><text fill="#24364B" font-family="Microsoft YaHei" font-size="14" lengthAdjust="spacing" textLength="100.8506" x="1580" y="258.8496">&#35270;&#39057;&#19982;&#20998; P &#25509;&#21475;</text></g><!--entity BiliSubtitle--><g class="entity" data-qualified-name="Bilibili.BiliSubtitle" data-source-line="61" id="ent0019"><rect fill="#FFFFFF" height="38.4775" rx="8" ry="8" style="stroke:#79BFE7;stroke-width:0.5;" width="94.1084" x="1583.5" y="290.0361"/><text fill="#24364B" font-family="Microsoft YaHei" font-size="14" lengthAdjust="spacing" textLength="74.1084" x="1593.5" y="314.8496">AI &#23383;&#24149;&#25509;&#21475;</text></g><g class="link" data-entity-1="ent0001" data-entity-2="ent0003" data-link-type="dependency" id="lnk20"><polygon fill="#4A86B8" points="138.8332,378.0361,129.8332,374.0361,133.8332,378.0361,129.8332,382.0361,138.8332,378.0361" style="stroke:#4A86B8;stroke-width:1;stroke-linejoin:miter;stroke-miterlimit:10;"/><path d="M34.0957,378.0361 C56.2415,378.0361 97.2491,378.0361 133.8332,378.0361" fill="none" style="stroke:#4A86B8;stroke-width:1.3;"/><text fill="#24364B" font-family="Microsoft YaHei" font-size="13" lengthAdjust="spacing" textLength="65" x="54" y="372.7915">&#25805;&#20316;&#24037;&#20316;&#21488;</text></g><g class="link" data-entity-1="ent0003" data-entity-2="ent0004" data-link-type="dependency" id="lnk21"><polygon fill="#4A86B8" points="424.8394,395.6773,416.1696,391.0045,419.8539,395.2971,415.5613,398.9814,424.8394,395.6773" style="stroke:#4A86B8;stroke-width:1;stroke-linejoin:miter;stroke-miterlimit:10;"/><path d="M246.0799,382.0457 C296.6255,385.9001 367.8259,391.3296 419.8539,395.2971" fill="none" style="stroke:#4A86B8;stroke-width:1.3;"/><text fill="#24364B" font-family="Microsoft YaHei" font-size="13" lengthAdjust="spacing" textLength="52" x="279" y="377.7915">&#32452;&#21512;&#30028;&#38754;</text></g><g class="link" data-entity-1="ent0003" data-entity-2="ent0005" data-link-type="dependency" id="lnk22"><polygon fill="#4A86B8" points="363.84,340.1455,354.3436,337.5345,358.8961,340.8922,355.5383,345.4447,363.84,340.1455" style="stroke:#4A86B8;stroke-width:1;stroke-linejoin:miter;stroke-miterlimit:10;"/><path d="M246.0581,362.3424 C252.0814,360.7774 258.1559,359.3021 264,358.0361 C296.1732,351.0666 326.3883,345.8022 358.8961,340.8922" fill="none" style="stroke:#4A86B8;stroke-width:1.3;"/><text fill="#24364B" font-family="Microsoft YaHei" font-size="13" lengthAdjust="spacing" textLength="78" x="266" y="337.7915">&#35302;&#21457;&#19994;&#21153;&#21160;&#20316;</text></g><g class="link" data-entity-1="ent0005" data-entity-2="ent0007" data-link-type="dependency" id="lnk23"><polygon fill="#4A86B8" points="753.1579,325.0361,744.1579,321.0361,748.1579,325.0361,744.1579,329.0361,753.1579,325.0361" style="stroke:#4A86B8;stroke-width:1;stroke-linejoin:miter;stroke-miterlimit:10;"/><path d="M602.4338,325.0361 C653.8759,325.0361 706.7123,325.0361 748.1579,325.0361" fill="none" style="stroke:#4A86B8;stroke-width:1.3;"/><text fill="#24364B" font-family="Microsoft YaHei" font-size="13" lengthAdjust="spacing" textLength="91.2476" x="627" y="319.7915">&#35835;&#21462; / &#26356;&#26032;&#23383;&#24149;</text></g><g class="link" data-entity-1="ent0005" data-entity-2="ent0006" data-link-type="dependency" id="lnk24"><polygon fill="#4A86B8" points="752.7179,263.1196,743.0496,261.2425,747.8456,264.2422,744.8458,269.0382,752.7179,263.1196" style="stroke:#4A86B8;stroke-width:1;stroke-linejoin:miter;stroke-miterlimit:10;"/><path d="M602.4338,297.7473 C653.6941,285.9361 706.4313,273.7847 747.8456,264.2422" fill="none" style="stroke:#4A86B8;stroke-width:1.3;"/><text fill="#24364B" font-family="Microsoft YaHei" font-size="13" lengthAdjust="spacing" textLength="101.3467" x="622" y="264.7915">JSON / NDJSON</text></g><g class="link" data-entity-1="ent0004" data-entity-2="ent0008" data-link-type="dependency" id="lnk25"><polygon fill="#4A86B8" points="742.9393,400.0361,733.9393,396.0361,737.9393,400.0361,733.9393,404.0361,742.9393,400.0361" style="stroke:#4A86B8;stroke-width:1;stroke-linejoin:miter;stroke-miterlimit:10;"/><path d="M541.0702,400.0361 C597.4096,400.0361 678.5161,400.0361 737.9393,400.0361" fill="none" style="stroke:#4A86B8;stroke-width:1.3;"/><text fill="#24364B" font-family="Microsoft YaHei" font-size="13" lengthAdjust="spacing" textLength="65" x="640" y="394.7915">&#27983;&#35272;&#22120;&#19979;&#36733;</text></g><g class="link" data-entity-1="ent0006" data-entity-2="ent0010" data-link-type="dependency" id="lnk26"><polygon fill="#4A86B8" points="1009.6488,192.1715,999.8944,190.8108,1004.843,193.5514,1002.1023,198.5001,1009.6488,192.1715" style="stroke:#4A86B8;stroke-width:1;stroke-linejoin:miter;stroke-miterlimit:10;"/><path d="M868.3003,233.1714 C877.5552,230.4408 887.0419,227.652 896,225.0361 C933.7638,214.0085 971.3928,203.1566 1004.843,193.5514" fill="none" style="stroke:#4A86B8;stroke-width:1.3;"/><text fill="#24364B" font-family="Microsoft YaHei" font-size="13" lengthAdjust="spacing" textLength="65" x="898" y="199.7915">&#30331;&#24405;&#19982;&#29366;&#24577;</text></g><g class="link" data-entity-1="ent0006" data-entity-2="ent0011" data-link-type="dependency" id="lnk27"><polygon fill="#4A86B8" points="982.979,300.2324,975.4372,293.8983,978.1743,298.8489,973.2236,301.586,982.979,300.2324" style="stroke:#4A86B8;stroke-width:1;stroke-linejoin:miter;stroke-miterlimit:10;"/><path d="M868.3003,266.9009 C877.5552,269.6315 887.0419,272.4202 896,275.0361 C924.2852,283.2959 950.3861,290.8478 978.1743,298.8489" fill="none" style="stroke:#4A86B8;stroke-width:1.3;"/><text fill="#24364B" font-family="Microsoft YaHei" font-size="13" lengthAdjust="spacing" textLength="52" x="904.5" y="269.7915">&#25209;&#37327;&#35299;&#26512;</text></g><g class="link" data-entity-1="ent0006" data-entity-2="ent0012" data-link-type="dependency" id="lnk28"><polygon fill="#4A86B8" points="1003.4368,250.0361,994.4368,246.0361,998.4368,250.0361,994.4368,254.0361,1003.4368,250.0361" style="stroke:#4A86B8;stroke-width:1;stroke-linejoin:miter;stroke-miterlimit:10;"/><path d="M868.1192,250.0361 C908.0208,250.0361 956.5828,250.0361 998.4368,250.0361" fill="none" style="stroke:#4A86B8;stroke-width:1.3;"/><text fill="#24364B" font-family="Microsoft YaHei" font-size="13" lengthAdjust="spacing" textLength="52" x="904.5" y="244.7915">&#27969;&#24335;&#23383;&#24149;</text></g><g class="link" data-entity-1="ent0010" data-entity-2="ent0015" data-link-type="dependency" id="lnk29"><polygon fill="#4A86B8" points="1302.2473,173.5181,1293.2212,169.5774,1297.2474,173.551,1293.2738,177.5772,1302.2473,173.5181" style="stroke:#4A86B8;stroke-width:1;stroke-linejoin:miter;stroke-miterlimit:10;"/><path d="M1131.1979,174.6434 C1180.2195,174.3209 1244.8556,173.8956 1297.2474,173.551" fill="none" style="stroke:#4A86B8;stroke-width:1.3;"/><text fill="#24364B" font-family="Microsoft YaHei" font-size="13" lengthAdjust="spacing" textLength="65.2476" x="1178" y="168.7915">&#20889;&#20837; / &#28165;&#38500;</text></g><g class="link" data-entity-1="ent0012" data-entity-2="ent0015" data-link-type="dependency" id="lnk30"><polygon fill="#4A86B8" points="1302.3838,191.5557,1292.6771,189.888,1297.5368,192.7834,1294.6414,197.6431,1302.3838,191.5557" style="stroke:#4A86B8;stroke-width:1;stroke-linejoin:miter;stroke-miterlimit:10;"/><path d="M1137.8384,233.2333 C1186.4063,220.9316 1247.4518,205.4694 1297.5368,192.7834" fill="none" style="stroke:#4A86B8;stroke-width:1.3;"/><text fill="#24364B" font-family="Microsoft YaHei" font-size="13" lengthAdjust="spacing" textLength="65" x="1178" y="200.7915">&#35835;&#21462;&#30331;&#24405;&#24577;</text></g><g class="link" data-entity-1="ent0011" data-entity-2="ent0014" data-link-type="dependency" id="lnk31"><polygon fill="#4A86B8" points="1299.2369,327.9062,1290.2507,323.8753,1294.2369,327.889,1290.2232,331.8753,1299.2369,327.9062" style="stroke:#4A86B8;stroke-width:1;stroke-linejoin:miter;stroke-miterlimit:10;"/><path d="M1158.1737,326.7892 C1164.2063,326.8822 1170.1938,326.966 1176,327.0361 C1216.6942,327.5275 1257.0604,327.7613 1294.2369,327.889" fill="none" style="stroke:#4A86B8;stroke-width:1.3;"/><text fill="#24364B" font-family="Microsoft YaHei" font-size="13" lengthAdjust="spacing" textLength="65.2476" x="1178" y="321.7915">&#21435;&#37325; / &#38480;&#27969;</text></g><g class="link" data-entity-1="ent0012" data-entity-2="ent0014" data-link-type="dependency" id="lnk32"><polygon fill="#4A86B8" points="1299.3928,308.5086,1291.6693,302.3974,1294.5497,307.266,1289.681,310.1464,1299.3928,308.5086" style="stroke:#4A86B8;stroke-width:1;stroke-linejoin:miter;stroke-miterlimit:10;"/><path d="M1137.8384,267.0572 C1185.4454,279.2721 1244.8551,294.5154 1294.5497,307.266" fill="none" style="stroke:#4A86B8;stroke-width:1.3;"/><text fill="#24364B" font-family="Microsoft YaHei" font-size="13" lengthAdjust="spacing" textLength="65.2476" x="1178" y="271.7915">&#26657;&#39564; / &#19978;&#38480;</text></g><g class="link" data-entity-1="ent0010" data-entity-2="ent0013" data-link-type="dependency" id="lnk33"><polygon fill="#4A86B8" points="1304.1162,251.7919,1295.4176,247.1729,1299.1284,251.4426,1294.8587,255.1534,1304.1162,251.7919" style="stroke:#4A86B8;stroke-width:1;stroke-linejoin:miter;stroke-miterlimit:10;"/><path d="M1131.4118,199.3731 C1140.4777,203.6209 1149.6002,208.23 1158,213.0361 C1166.5653,217.937 1166.8357,222.3758 1176,226.0361 C1216.5724,242.2414 1260.1,248.7092 1299.1284,251.4426" fill="none" style="stroke:#4A86B8;stroke-width:1.3;"/></g><g class="link" data-entity-1="ent0011" data-entity-2="ent0013" data-link-type="dependency" id="lnk34"><polygon fill="#4A86B8" points="1304.3971,253.1815,1295.3505,249.2881,1299.3975,253.2406,1295.445,257.2875,1304.3971,253.1815" style="stroke:#4A86B8;stroke-width:1;stroke-linejoin:miter;stroke-miterlimit:10;"/><path d="M1146.2669,296.4195 C1150.3832,293.8238 1154.331,291.0319 1158,288.0361 C1168.8866,279.1472 1163.7009,268.8379 1176,262.0361 C1187.1879,255.8489 1246.7127,253.8628 1299.3975,253.2406" fill="none" style="stroke:#4A86B8;stroke-width:1.3;"/></g><g class="link" data-entity-1="ent0012" data-entity-2="ent0013" data-link-type="dependency" id="lnk35"><polygon fill="#4A86B8" points="1304.2679,252.3332,1295.3078,248.2446,1299.2681,252.2838,1295.2288,256.2442,1304.2679,252.3332" style="stroke:#4A86B8;stroke-width:1;stroke-linejoin:miter;stroke-miterlimit:10;"/><path d="M1137.8384,250.6908 C1187.0178,251.1761 1248.9609,251.7874 1299.2681,252.2838" fill="none" style="stroke:#4A86B8;stroke-width:1.3;"/></g><g class="link" data-entity-1="ent0013" data-entity-2="ent0017" data-link-type="dependency" id="lnk36"><polygon fill="#4A86B8" points="1578.4637,208.3775,1568.8103,206.4252,1573.5828,209.4622,1570.5458,214.2346,1578.4637,208.3775" style="stroke:#4A86B8;stroke-width:1;stroke-linejoin:miter;stroke-miterlimit:10;"/><path d="M1448.7026,237.2133 C1490.0375,228.0278 1536.263,217.7555 1573.5828,209.4622" fill="none" style="stroke:#4A86B8;stroke-width:1.3;"/><text fill="#24364B" font-family="Microsoft YaHei" font-size="13" lengthAdjust="spacing" textLength="40.4155" x="1510" y="209.7915">HTTPS</text></g><g class="link" data-entity-1="ent0013" data-entity-2="ent0018" data-link-type="dependency" id="lnk37"><polygon fill="#4A86B8" points="1569.9684,253.0361,1560.9684,249.0361,1564.9684,253.0361,1560.9684,257.0361,1569.9684,253.0361" style="stroke:#4A86B8;stroke-width:1;stroke-linejoin:miter;stroke-miterlimit:10;"/><path d="M1448.7026,253.0361 C1486.9811,253.0361 1528.6394,253.0361 1564.9684,253.0361" fill="none" style="stroke:#4A86B8;stroke-width:1.3;"/><text fill="#24364B" font-family="Microsoft YaHei" font-size="13" lengthAdjust="spacing" textLength="40.4155" x="1510" y="247.7915">HTTPS</text></g><g class="link" data-entity-1="ent0013" data-entity-2="ent0019" data-link-type="dependency" id="lnk38"><polygon fill="#4A86B8" points="1583.4997,298.8138,1575.5818,292.9567,1578.6188,297.7292,1573.8463,300.7662,1583.4997,298.8138" style="stroke:#4A86B8;stroke-width:1;stroke-linejoin:miter;stroke-miterlimit:10;"/><path d="M1448.7026,268.8589 C1491.9296,278.4649 1540.9622,289.3611 1578.6188,297.7292" fill="none" style="stroke:#4A86B8;stroke-width:1.3;"/><text fill="#24364B" font-family="Microsoft YaHei" font-size="13" lengthAdjust="spacing" textLength="40.4155" x="1510" y="276.7915">HTTPS</text></g><?plantuml-src XLLRJnj757xVNp5rtoeP5-FQq8TAji4XKI48qvl4ozWUyDRhdUtkc4khIg4Abn30f2bKfWHnIx626gCg48CXaVfNwbtRJ_qBFRExjdTjQ96CTkTyvplNR_O3HSNJMOmaF4zp36bPmh2C1IOoYQ28A8dX-_5S0kcBHMD_nTYxCFOU2nAPOeXHf8hJQOPIeagIJAIo86WPKLQmYhCeWPEPQPNcv5IKIbH57yRwOv5Op858aIcSarYCocmKPmaQ4PCgrIWmVuE7YNWxqYRp1_g2WOW3OgRB0N7nUuBy_jjCjczlg2yIx7K0j3HEqLbHdaPJMDA8msBcdwIgJ5JK6tGO954cR5uXYAeiJHs6iAhIMJjG8DmVZFHt6YVIOZ8Z4qr3lJrz3gC23SFJ9CxceU-yeLYUbfp996bMeJA14lyVWduG48fqZS3yunQgfeXgduO68h6X49nsz_T71xTCK-Hssg4Xc6qNRI0MxX_iTzFQhNVIfZ332QoHEpFsnqATr4EXK3WSS5C7e_x1m82BEYdHNEeEtW0atPNoG3WKYGwwUGFHle7Gny0hu2I30q_jbwAnyjQ3i8Q-q8Wg26PZFCPvldwoeXUAwA-tQ9m06FKEcAW831s0PYBj0NaQ1-UD5uVwuaizVpGfOqNnAJ3-7gRDcLvZyE9sg5uTLwz-hbKULoiNatBBeFa-CXsYhGEtc_xsPVLcLr-xggrU68yM9kKqfHdDbzE8LyibJ75uPwcQqM01UNYJxAlcWPihF7OVwQyFeVxQQMbIbiI4Jw99B7cn8ZPTF-S7OKNioEAFN_NBBQDueEyzjHoRmRMcumZqKN9x6TlBKAnUkjQNhoRbYQyda0_5n_d_1_67ewRNq9m26kJpiUOmIkPOpxSWhY0Vn2YSyRVndCp4B34zuaITwHv7_VLnlRHWRBJ70JNvS8wbxVw6uR6hhFh9KkFmMVtaoDZRxFIT4LE4QZwLQ5IQiKAFMyztTUUyAtwhILRczbkNVmJLJWl6xhg-Ug2VBTIF5kqMcvNw4d29yr-pqVnIZqeYU7OKy-uvh6FztMLjQwrQtj0lB_JyCsFZH5-vSF6fvBiSqLYJRjnwlPV3QWe8MuBsX8VYNlydGU-zw0YgNk_KIoycvM76b8UoD0_hIZDYSo2QnhyUC4DBifw8dN4hNVxIEJ7ZoMbjVw5MgEWtMrRVMd0-gzi6nQjQMK9Zg0F_9HzLnwh3fbjJSKERC-3PSlqZh_SpKwpeKsGyN-TIimINFnFCOsvlQnDGe61zSmLw3F9lGrgA0qJzv7VeVBMym-UvMWGseMtcO5Cg75YgwFbja8FnsnjZ-ynAk0FRr2F0kMW0F3h87mH7KXnd2ObNqRp9gkMdzPiRGMWnS9Wj0rw7sNbegNMnk67jJUUCJouRotbB9MwOOwFDo0lwTTwkGcX6Cd7MYW16Noh0alAIoukDmh7WP70ZhURO-m7vELAoCcolBUVTg3IMru6tKTY4FBfuE-36_a7ZrHh0g-LLy70bwz1NHqo7fPFVOHBQpoqJvuUmmnCJO_7RxEO6_nUW6Q-5WVkI4PIWZD4iebCj5S8taTycja2Hdd-bxnQjkmKkVHYYNbggtho7p-0_rsk0hfRNGTp6pfl6xf-rIg7z7No0Pt0ygOeA-_lHJmAHKuX7_1S0?></g></svg>