<svg xmlns="http://www.w3.org/2000/svg" xmlns:xlink="http://www.w3.org/1999/xlink" contentStyleType="text/css" data-diagram-type="ACTIVITY" height="963px" preserveAspectRatio="none" style="width:366px;height:963px;background:#F8FBFF;" version="1.1" viewBox="0 0 366 963" width="366px" zoomAndPan="magnify"><?plantuml 1.2026.6?><defs/><g><rect fill="#F8FBFF" height="963" style="stroke:none;stroke-width:1;" width="366" x="0" y="0"/><g class="title" data-source-line="2"><text fill="#173B61" font-family="Microsoft YaHei" font-size="22" font-weight="700" lengthAdjust="spacing" textLength="261.1855" x="51.8325" y="43.2783">BiliAISub &#23383;&#24149;&#22788;&#29702;&#24037;&#20316;&#27969;</text></g><ellipse cx="184.4253" cy="75.0361" fill="#1AA7E1" rx="10" ry="10" style="stroke:#222222;stroke-width:1;"/><rect fill="#FFFFFF" height="51.6758" rx="9" ry="9" style="stroke:#79BFE7;stroke-width:0.5;" width="128" x="120.4253" y="105.0361"/><text fill="#24364B" font-family="Microsoft YaHei" font-size="12" lengthAdjust="spacing" textLength="62.1387" x="130.4253" y="127.7334">1  &#25195;&#30721;&#30331;&#24405;</text><text fill="#24364B" font-family="Microsoft YaHei" font-size="12" lengthAdjust="spacing" textLength="108" x="130.4253" y="143.5713">&#24314;&#31435;&#26381;&#21153;&#31471;&#21152;&#23494;&#20250;&#35805;</text><rect fill="#FFFFFF" height="51.6758" rx="9" ry="9" style="stroke:#79BFE7;stroke-width:0.5;" width="159.6523" x="104.5991" y="176.7119"/><text fill="#24364B" font-family="Microsoft YaHei" font-size="12" lengthAdjust="spacing" textLength="62.1387" x="114.5991" y="199.4092">2  &#28155;&#21152;&#35270;&#39057;</text><text fill="#24364B" font-family="Microsoft YaHei" font-size="12" lengthAdjust="spacing" textLength="139.6523" x="114.5991" y="215.2471">BV &#21495; / &#23436;&#25972;&#38142;&#25509; / &#30701;&#38142;&#25509;</text><rect fill="#FFFFFF" height="35.8379" rx="9" ry="9" style="stroke:#79BFE7;stroke-width:0.5;" width="141.0313" x="113.9097" y="248.3877"/><text fill="#24364B" font-family="Microsoft YaHei" font-size="12" lengthAdjust="spacing" textLength="121.0313" x="123.9097" y="271.085">3  &#35299;&#26512;&#35270;&#39057;&#26631;&#39064;&#19982;&#20998; P</text><polygon fill="#E8F6FF" points="151.9329,304.2256,216.9177,304.2256,228.9177,316.2256,216.9177,328.2256,151.9329,328.2256,139.9329,316.2256,151.9329,304.2256" style="stroke:#368BC1;stroke-width:0.5;stroke-linejoin:miter;stroke-miterlimit:10;"/><text fill="#24364B" font-family="Microsoft YaHei" font-size="11" lengthAdjust="spacing" textLength="64.9849" x="151.9329" y="320.6057">&#21253;&#21547;&#22810;&#20998; P&#65311;</text><text fill="#24364B" font-family="Microsoft YaHei" font-size="11" lengthAdjust="spacing" textLength="11" x="128.9329" y="313.3467">&#26159;</text><text fill="#24364B" font-family="Microsoft YaHei" font-size="11" lengthAdjust="spacing" textLength="11" x="228.9177" y="313.3467">&#21542;</text><rect fill="#FFFFFF" height="35.8379" rx="9" ry="9" style="stroke:#79BFE7;stroke-width:0.5;" width="128" x="49.4253" y="338.2256"/><text fill="#24364B" font-family="Microsoft YaHei" font-size="12" lengthAdjust="spacing" textLength="108" x="59.4253" y="360.9229">&#25628;&#32034;&#24182;&#36873;&#25321;&#22788;&#29702;&#33539;&#22260;</text><rect fill="#FFFFFF" height="35.8379" rx="9" ry="9" style="stroke:#79BFE7;stroke-width:0.5;" width="116" x="197.4253" y="338.2256"/><text fill="#24364B" font-family="Microsoft YaHei" font-size="12" lengthAdjust="spacing" textLength="96" x="207.4253" y="360.9229">&#33258;&#21160;&#36873;&#20013;&#24403;&#21069;&#35270;&#39057;</text><polygon fill="#E8F6FF" points="184.4253,380.0635,196.4253,392.0635,184.4253,404.0635,172.4253,392.0635,184.4253,380.0635" style="stroke:#368BC1;stroke-width:0.5;stroke-linejoin:miter;stroke-miterlimit:10;"/><rect fill="#FFFFFF" height="51.6758" rx="9" ry="9" style="stroke:#79BFE7;stroke-width:0.5;" width="128" x="120.4253" y="424.0635"/><text fill="#24364B" font-family="Microsoft YaHei" font-size="12" lengthAdjust="spacing" textLength="86.1387" x="130.4253" y="446.7607">4  &#21019;&#24314;&#23383;&#24149;&#20219;&#21153;</text><text fill="#24364B" font-family="Microsoft YaHei" font-size="12" lengthAdjust="spacing" textLength="108" x="130.4253" y="462.5986">&#30830;&#23450;&#35821;&#35328;&#19982;&#22788;&#29702;&#33539;&#22260;</text><rect fill="#FFFFFF" height="35.8379" rx="9" ry="9" style="stroke:#79BFE7;stroke-width:0.5;" width="178.4434" x="95.2036" y="539.7393"/><text fill="#24364B" font-family="Microsoft YaHei" font-size="12" lengthAdjust="spacing" textLength="158.4434" x="105.2036" y="562.4365">&#33719;&#21462;&#19968;&#20010;&#20998; P &#30340;&#21487;&#29992;&#23383;&#24149;&#36712;&#36947;</text><rect fill="#FFFFFF" height="51.6758" rx="9" ry="9" style="stroke:#79BFE7;stroke-width:0.5;" width="149.2109" x="109.8198" y="595.5771"/><text fill="#24364B" font-family="Microsoft YaHei" font-size="12" lengthAdjust="spacing" textLength="129.2109" x="119.8198" y="618.2744">&#36890;&#36807; NDJSON &#25512;&#36865;&#32467;&#26524;</text><text fill="#24364B" font-family="Microsoft YaHei" font-size="12" lengthAdjust="spacing" textLength="108" x="119.8198" y="634.1123">&#24182;&#31435;&#21363;&#26356;&#26032;&#20219;&#21153;&#21015;&#34920;</text><polygon fill="#E8F6FF" points="184.4253,495.7393,196.4253,507.7393,184.4253,519.7393,172.4253,507.7393,184.4253,495.7393" style="stroke:#368BC1;stroke-width:0.5;stroke-linejoin:miter;stroke-miterlimit:10;"/><polygon fill="#E8F6FF" points="140.9329,667.2529,227.9177,667.2529,239.9177,679.2529,227.9177,691.2529,140.9329,691.2529,128.9329,679.2529,140.9329,667.2529" style="stroke:#368BC1;stroke-width:0.5;stroke-linejoin:miter;stroke-miterlimit:10;"/><text fill="#24364B" font-family="Microsoft YaHei" font-size="11" lengthAdjust="spacing" textLength="11" x="188.4253" y="702.8921">&#21542;</text><text fill="#24364B" font-family="Microsoft YaHei" font-size="11" lengthAdjust="spacing" textLength="86.9849" x="140.9329" y="683.6331">&#36824;&#26377;&#24453;&#22788;&#29702;&#20998; P&#65311;</text><text fill="#24364B" font-family="Microsoft YaHei" font-size="11" lengthAdjust="spacing" textLength="11" x="239.9177" y="676.374">&#26159;</text><rect fill="#FFFFFF" height="51.6758" rx="9" ry="9" style="stroke:#79BFE7;stroke-width:0.5;" width="128.2285" x="120.311" y="724.3921"/><text fill="#24364B" font-family="Microsoft YaHei" font-size="12" lengthAdjust="spacing" textLength="62.1387" x="130.311" y="747.0894">5  &#22312;&#32447;&#26657;&#23545;</text><text fill="#24364B" font-family="Microsoft YaHei" font-size="12" lengthAdjust="spacing" textLength="108.2285" x="130.311" y="762.9272">&#20999;&#25442;&#35821;&#35328; / &#24674;&#22797;&#21407;&#25991;</text><rect fill="#FFFFFF" height="51.6758" rx="9" ry="9" style="stroke:#79BFE7;stroke-width:0.5;" width="118.8066" x="125.022" y="796.0679"/><text fill="#24364B" font-family="Microsoft YaHei" font-size="12" lengthAdjust="spacing" textLength="74.1387" x="135.022" y="818.7651">6  &#25353;&#33539;&#22260;&#23548;&#20986;</text><text fill="#24364B" font-family="Microsoft YaHei" font-size="12" lengthAdjust="spacing" textLength="98.8066" x="135.022" y="834.603">TXT / SRT / JSON</text><ellipse cx="184.4253" cy="878.7437" fill="none" rx="11" ry="11" style="stroke:#222222;stroke-width:1;"/><ellipse cx="184.4253" cy="878.7437" fill="#222222" rx="6" ry="6" style="stroke:#222222;stroke-width:1;"/><line style="stroke:#368BC1;stroke-width:1.4;" x1="184.4253" x2="184.4253" y1="85.0361" y2="105.0361"/><polygon fill="#368BC1" points="180.4253,95.0361,184.4253,105.0361,188.4253,95.0361,184.4253,99.0361" style="stroke:#368BC1;stroke-width:1;stroke-linejoin:miter;stroke-miterlimit:10;"/><line style="stroke:#368BC1;stroke-width:1.4;" x1="184.4253" x2="184.4253" y1="156.7119" y2="176.7119"/><polygon fill="#368BC1" points="180.4253,166.7119,184.4253,176.7119,188.4253,166.7119,184.4253,170.7119" style="stroke:#368BC1;stroke-width:1;stroke-linejoin:miter;stroke-miterlimit:10;"/><line style="stroke:#368BC1;stroke-width:1.4;" x1="184.4253" x2="184.4253" y1="228.3877" y2="248.3877"/><polygon fill="#368BC1" points="180.4253,238.3877,184.4253,248.3877,188.4253,238.3877,184.4253,242.3877" style="stroke:#368BC1;stroke-width:1;stroke-linejoin:miter;stroke-miterlimit:10;"/><line style="stroke:#368BC1;stroke-width:1.4;" x1="139.9329" x2="113.4253" y1="316.2256" y2="316.2256"/><line style="stroke:#368BC1;stroke-width:1.4;" x1="113.4253" x2="113.4253" y1="316.2256" y2="338.2256"/><polygon fill="#368BC1" points="109.4253,328.2256,113.4253,338.2256,117.4253,328.2256,113.4253,332.2256" style="stroke:#368BC1;stroke-width:1;stroke-linejoin:miter;stroke-miterlimit:10;"/><line style="stroke:#368BC1;stroke-width:1.4;" x1="228.9177" x2="255.4253" y1="316.2256" y2="316.2256"/><line style="stroke:#368BC1;stroke-width:1.4;" x1="255.4253" x2="255.4253" y1="316.2256" y2="338.2256"/><polygon fill="#368BC1" points="251.4253,328.2256,255.4253,338.2256,259.4253,328.2256,255.4253,332.2256" style="stroke:#368BC1;stroke-width:1;stroke-linejoin:miter;stroke-miterlimit:10;"/><line style="stroke:#368BC1;stroke-width:1.4;" x1="113.4253" x2="113.4253" y1="374.0635" y2="392.0635"/><line style="stroke:#368BC1;stroke-width:1.4;" x1="113.4253" x2="172.4253" y1="392.0635" y2="392.0635"/><polygon fill="#368BC1" points="162.4253,388.0635,172.4253,392.0635,162.4253,396.0635,166.4253,392.0635" style="stroke:#368BC1;stroke-width:1;stroke-linejoin:miter;stroke-miterlimit:10;"/><line style="stroke:#368BC1;stroke-width:1.4;" x1="255.4253" x2="255.4253" y1="374.0635" y2="392.0635"/><line style="stroke:#368BC1;stroke-width:1.4;" x1="255.4253" x2="196.4253" y1="392.0635" y2="392.0635"/><polygon fill="#368BC1" points="206.4253,388.0635,196.4253,392.0635,206.4253,396.0635,202.4253,392.0635" style="stroke:#368BC1;stroke-width:1;stroke-linejoin:miter;stroke-miterlimit:10;"/><line style="stroke:#368BC1;stroke-width:1.4;" x1="184.4253" x2="184.4253" y1="284.2256" y2="304.2256"/><polygon fill="#368BC1" points="180.4253,294.2256,184.4253,304.2256,188.4253,294.2256,184.4253,298.2256" style="stroke:#368BC1;stroke-width:1;stroke-linejoin:miter;stroke-miterlimit:10;"/><line style="stroke:#368BC1;stroke-width:1.4;" x1="184.4253" x2="184.4253" y1="404.0635" y2="424.0635"/><polygon fill="#368BC1" points="180.4253,414.0635,184.4253,424.0635,188.4253,414.0635,184.4253,418.0635" style="stroke:#368BC1;stroke-width:1;stroke-linejoin:miter;stroke-miterlimit:10;"/><line style="stroke:#368BC1;stroke-width:1.4;" x1="184.4253" x2="184.4253" y1="575.5771" y2="595.5771"/><polygon fill="#368BC1" points="180.4253,585.5771,184.4253,595.5771,188.4253,585.5771,184.4253,589.5771" style="stroke:#368BC1;stroke-width:1;stroke-linejoin:miter;stroke-miterlimit:10;"/><line style="stroke:#368BC1;stroke-width:1.4;" x1="184.4253" x2="184.4253" y1="519.7393" y2="539.7393"/><polygon fill="#368BC1" points="180.4253,529.7393,184.4253,539.7393,188.4253,529.7393,184.4253,533.7393" style="stroke:#368BC1;stroke-width:1;stroke-linejoin:miter;stroke-miterlimit:10;"/><line style="stroke:#368BC1;stroke-width:1.4;" x1="239.9177" x2="285.647" y1="679.2529" y2="679.2529"/><polygon fill="#368BC1" points="281.647,595.9961,285.647,585.9961,289.647,595.9961,285.647,591.9961" style="stroke:#368BC1;stroke-width:1.4;stroke-linejoin:miter;stroke-miterlimit:10;"/><line style="stroke:#368BC1;stroke-width:1.4;" x1="285.647" x2="285.647" y1="507.7393" y2="679.2529"/><line style="stroke:#368BC1;stroke-width:1.4;" x1="285.647" x2="196.4253" y1="507.7393" y2="507.7393"/><polygon fill="#368BC1" points="206.4253,503.7393,196.4253,507.7393,206.4253,511.7393,202.4253,507.7393" style="stroke:#368BC1;stroke-width:1;stroke-linejoin:miter;stroke-miterlimit:10;"/><line style="stroke:#368BC1;stroke-width:1.4;" x1="184.4253" x2="184.4253" y1="647.2529" y2="667.2529"/><polygon fill="#368BC1" points="180.4253,657.2529,184.4253,667.2529,188.4253,657.2529,184.4253,661.2529" style="stroke:#368BC1;stroke-width:1;stroke-linejoin:miter;stroke-miterlimit:10;"/><line style="stroke:#368BC1;stroke-width:1.4;" x1="184.4253" x2="184.4253" y1="475.7393" y2="495.7393"/><polygon fill="#368BC1" points="180.4253,485.7393,184.4253,495.7393,188.4253,485.7393,184.4253,489.7393" style="stroke:#368BC1;stroke-width:1;stroke-linejoin:miter;stroke-miterlimit:10;"/><line style="stroke:#368BC1;stroke-width:1.4;" x1="184.4253" x2="184.4253" y1="691.2529" y2="724.3921"/><polygon fill="#368BC1" points="180.4253,714.3921,184.4253,724.3921,188.4253,714.3921,184.4253,718.3921" style="stroke:#368BC1;stroke-width:1;stroke-linejoin:miter;stroke-miterlimit:10;"/><line style="stroke:#368BC1;stroke-width:1.4;" x1="184.4253" x2="184.4253" y1="776.0679" y2="796.0679"/><polygon fill="#368BC1" points="180.4253,786.0679,184.4253,796.0679,188.4253,786.0679,184.4253,790.0679" style="stroke:#368BC1;stroke-width:1;stroke-linejoin:miter;stroke-miterlimit:10;"/><line style="stroke:#368BC1;stroke-width:1.4;" x1="184.4253" x2="184.4253" y1="847.7437" y2="867.7437"/><polygon fill="#368BC1" points="180.4253,857.7437,184.4253,867.7437,188.4253,857.7437,184.4253,861.7437" style="stroke:#368BC1;stroke-width:1;stroke-linejoin:miter;stroke-miterlimit:10;"/><g class="legend" data-source-line="44"><rect fill="none" height="28.4775" rx="9" ry="9" style="stroke:#000000;stroke-width:1;" width="320.8506" x="22" y="910.7437"/><text fill="#24364B" font-family="Microsoft YaHei" font-size="14" lengthAdjust="spacing" textLength="310.8506" x="27" y="930.5571">&#19968;&#20010;&#20998; P &#23436;&#25104;&#21518;&#31435;&#21363;&#21453;&#39304;&#65292;&#26080;&#38656;&#31561;&#24453;&#25972;&#25209;&#20219;&#21153;&#32467;&#26463;</text></g><?plantuml-src RLFRJXfH57sVhzXDN_IbBMW1uKbKqZQfROffseIN8mmw4MRCCDROfWcaAg3S6kkbY0hK2zKWJKf5nClFiCyCJ_v2pp3Oqkeya67lTTPPQ-qzzwPbCX4a421pqem2eI2l495mYg04U70A0M7mgNjc7B2yZlLLt9rNCujOssjUvEYl2CU5fWHnciWa2EF4EpKXIpEYRqWAI3BSTzbSJfUh2-7Z_MGceBWaKHabGHwU2rvP2ab-1TwI9xnmDx93Pkxli_Gxko1jVJh0BRpdmMo-gzKvQxBsEIscBa1ealYaMK6S03y9XFYkJbk_Lv95NWQJhQinAClIR8Ulps9p3fd-RuvD2jufaG-5mFIWlwj9l8hmJb3cu0C7uBmLKllHEvBiu-LErJhWT8rOMVLs0W330WbAekyMrOZDPMbJtG2w6JkQ0TmAaVy4CpXe7T6B8t_rFB8C3RYuZsooEf2pcm1e_4ZDHzIl3RnOzOZOE5EFbcakYKi5zQY2ItciB3RFirfboy7PpGnUQx2YTh3OAdxsYCxNWEaQF0GyJj3LQclbagRss5zrfsoyiqDz0Dh1DxgTCGxHVBHLt6YUfZ2s22yT72VueGSJ2vWvmjriktXzljCBoYGlGW_TgFGo2tQQoQdL8jPFMk4uNVvkRAgM-8IRLGV7ip4pZin-6wf53t6fn73Dqp9Uh60yQLpCSA9Fy7ESlHy0OvlCgh7spGQpLF28Qk4OZvdJibOAw_h-kKFcftcYjFbJDKolDKyPvh0j5zJiFAOhwfUImQTTb5gH5OUEROMpsbKKHeUVkL-C0aqnMH6riKAtSopg-WcB6fC_wMQLhlqmL61iNIkKRgw3sKc1VQSzsjK6pSNnSg7pXVu9IGWP4O4eAPq4EFjZPYzNKi-kQBw0bJgxAHQboQ9XZ0s7HegucyJK3bsBilbOs50JSSCdLiunUkOHnzwCCQ3xbVwhItUmXP6cEIx0Jx0GOLnI52d837QdeAz0B8EPbE4AqydMVkpwF47NywrSM2th-jcEq7ZTiAhdiBMZ3yLW_Gq0?></g></svg>