<svg width="1200" height="620" viewBox="0 0 1200 620" fill="none" xmlns="http://www.w3.org/2000/svg" role="img" aria-labelledby="title desc">
  <title id="title">BiliAISub B站 AI 字幕工作台</title>
  <desc id="desc">展示扫码登录、视频解析、多语言字幕编辑和文件导出的 BiliAISub 工作台界面。</desc>
  <defs>
    <linearGradient id="bg" x1="70" y1="30" x2="1120" y2="600" gradientUnits="userSpaceOnUse">
      <stop stop-color="#102B4A"/>
      <stop offset="0.52" stop-color="#14243D"/>
      <stop offset="1" stop-color="#281A3D"/>
    </linearGradient>
    <linearGradient id="brand" x1="120" y1="102" x2="460" y2="230" gradientUnits="userSpaceOnUse">
      <stop stop-color="#5CCBFF"/>
      <stop offset="1" stop-color="#FF6EAC"/>
    </linearGradient>
    <linearGradient id="line" x1="130" y1="0" x2="840" y2="0" gradientUnits="userSpaceOnUse">
      <stop stop-color="#52C7FF"/>
      <stop offset="1" stop-color="#F66BA7"/>
    </linearGradient>
    <filter id="shadow" x="-30%" y="-30%" width="160%" height="170%" color-interpolation-filters="sRGB">
      <feDropShadow dx="0" dy="18" stdDeviation="22" flood-color="#06111F" flood-opacity="0.42"/>
    </filter>
    <filter id="glow" x="-50%" y="-50%" width="200%" height="200%">
      <feGaussianBlur stdDeviation="26"/>
    </filter>
    <pattern id="grid" width="36" height="36" patternUnits="userSpaceOnUse">
      <path d="M36 0H0V36" stroke="#B3D7F6" stroke-opacity="0.07"/>
    </pattern>
  </defs>

  <rect width="1200" height="620" rx="30" fill="url(#bg)"/>
  <circle cx="1015" cy="48" r="180" fill="#3F9FFF" fill-opacity="0.2" filter="url(#glow)"/>
  <circle cx="142" cy="558" r="170" fill="#F162A4" fill-opacity="0.13" filter="url(#glow)"/>
  <rect x="1" y="1" width="1198" height="618" rx="29" fill="url(#grid)"/>
  <rect x="1" y="1" width="1198" height="618" rx="29" stroke="#8ACBFF" stroke-opacity="0.2"/>

  <g opacity="0.92">
    <rect x="78" y="67" width="44" height="44" rx="14" fill="#E7F8FF"/>
    <path d="M92 83.2C92 80.9 93.9 79 96.2 79H103.8C106.1 79 108 80.9 108 83.2V94.8C108 97.1 106.1 99 103.8 99H96.2C93.9 99 92 97.1 92 94.8V83.2Z" fill="#0B9FE5"/>
    <path d="M96 85.6L99.9 89.2L104 85.6" stroke="white" stroke-width="2.2" stroke-linecap="round" stroke-linejoin="round"/>
    <circle cx="96.8" cy="93.8" r="1.6" fill="white"/>
    <circle cx="103.2" cy="93.8" r="1.6" fill="white"/>
    <text x="137" y="88" fill="white" font-family="Inter,Segoe UI,Microsoft YaHei,sans-serif" font-size="18" font-weight="700">BiliAISub</text>
    <text x="138" y="107" fill="#9DB8D1" font-family="Inter,Segoe UI,Microsoft YaHei,sans-serif" font-size="10" letter-spacing="2.5">SUBTITLE WORKSPACE</text>
  </g>

  <text x="80" y="189" fill="white" font-family="Inter,Segoe UI,Microsoft YaHei,sans-serif" font-size="40" font-weight="750">把 B 站 AI 字幕</text>
  <text x="80" y="240" fill="url(#brand)" font-family="Inter,Segoe UI,Microsoft YaHei,sans-serif" font-size="40" font-weight="750">变成真正可用的文本</text>
  <text x="82" y="278" fill="#B9CBE0" font-family="Inter,Segoe UI,Microsoft YaHei,sans-serif" font-size="15">扫码登录 · 批量解析 · 多语言校对 · 一键导出</text>

  <g transform="translate(80 337)">
    <circle cx="10" cy="10" r="10" fill="#54C8FF"/>
    <path d="M6 10L9 13L15 7" stroke="#0E2C49" stroke-width="2" stroke-linecap="round" stroke-linejoin="round"/>
    <text x="30" y="15" fill="#E6F5FF" font-family="Inter,Segoe UI,Microsoft YaHei,sans-serif" font-size="14">官方 AI 字幕接口</text>
    <circle cx="10" cy="55" r="10" fill="#FF77B1"/>
    <path d="M7 55H13M10 52V58" stroke="#451A37" stroke-width="2" stroke-linecap="round"/>
    <text x="30" y="60" fill="#E6F5FF" font-family="Inter,Segoe UI,Microsoft YaHei,sans-serif" font-size="14">流式反馈，不必等待全部完成</text>
    <circle cx="10" cy="100" r="10" fill="#A7E8FF"/>
    <path d="M6.5 100H13.5" stroke="#0E2C49" stroke-width="2" stroke-linecap="round"/>
    <text x="30" y="105" fill="#E6F5FF" font-family="Inter,Segoe UI,Microsoft YaHei,sans-serif" font-size="14">登录凭据只留在服务端</text>
  </g>

  <g filter="url(#shadow)">
    <rect x="570" y="54" width="548" height="493" rx="22" fill="#F7FBFF"/>
    <rect x="570.5" y="54.5" width="547" height="492" rx="21.5" stroke="#B9D6EE"/>
    <rect x="570" y="54" width="548" height="54" rx="22" fill="#FFFFFF"/>
    <circle cx="601" cy="81" r="6" fill="#FF6EAC"/>
    <circle cx="622" cy="81" r="6" fill="#FFC969"/>
    <circle cx="643" cy="81" r="6" fill="#57D5A0"/>
    <text x="676" y="86" fill="#294560" font-family="Inter,Segoe UI,Microsoft YaHei,sans-serif" font-size="13" font-weight="650">字幕工作台</text>
    <rect x="930" y="70" width="154" height="22" rx="11" fill="#E8F6FF"/>
    <circle cx="945" cy="81" r="4" fill="#1BA9E8"/>
    <text x="957" y="85" fill="#2D7AA3" font-family="Inter,Segoe UI,Microsoft YaHei,sans-serif" font-size="10">B 站已连接</text>

    <rect x="594" y="132" width="152" height="385" rx="15" fill="#EEF7FD"/>
    <text x="613" y="160" fill="#294560" font-family="Inter,Segoe UI,Microsoft YaHei,sans-serif" font-size="12" font-weight="700">字幕任务</text>
    <text x="613" y="181" fill="#7792A9" font-family="Inter,Segoe UI,Microsoft YaHei,sans-serif" font-size="10">成功 3 / 4</text>
    <rect x="613" y="203" width="114" height="58" rx="10" fill="#DDF3FF" stroke="#64C8F3"/>
    <circle cx="631" cy="223" r="7" fill="#22B67B"/>
    <path d="M627.5 223L630 225.5L635 220.5" stroke="white" stroke-width="1.6" stroke-linecap="round" stroke-linejoin="round"/>
    <text x="646" y="224" fill="#2D4B66" font-family="Inter,Segoe UI,Microsoft YaHei,sans-serif" font-size="10" font-weight="650">BV1xx411c7mD</text>
    <text x="646" y="241" fill="#7590A8" font-family="Inter,Segoe UI,Microsoft YaHei,sans-serif" font-size="9">3 种语言 · 已完成</text>
    <rect x="613" y="272" width="114" height="58" rx="10" fill="#FFFFFF"/>
    <circle cx="631" cy="292" r="7" fill="#FFB95E"/>
    <path d="M631 288V296M627 292H635" stroke="white" stroke-width="1.4" stroke-linecap="round"/>
    <text x="646" y="293" fill="#2D4B66" font-family="Inter,Segoe UI,Microsoft YaHei,sans-serif" font-size="10" font-weight="650">日常学习记录</text>
    <text x="646" y="310" fill="#7590A8" font-family="Inter,Segoe UI,Microsoft YaHei,sans-serif" font-size="9">正在获取…</text>
    <rect x="613" y="341" width="114" height="58" rx="10" fill="#FFFFFF"/>
    <circle cx="631" cy="361" r="7" fill="#22B67B"/>
    <path d="M627.5 361L630 363.5L635 358.5" stroke="white" stroke-width="1.6" stroke-linecap="round" stroke-linejoin="round"/>
    <text x="646" y="362" fill="#2D4B66" font-family="Inter,Segoe UI,Microsoft YaHei,sans-serif" font-size="10" font-weight="650">产品发布会</text>
    <text x="646" y="379" fill="#7590A8" font-family="Inter,Segoe UI,Microsoft YaHei,sans-serif" font-size="9">2 种语言 · 已完成</text>
    <rect x="613" y="420" width="114" height="3" rx="1.5" fill="#D0E0EC"/>
    <rect x="613" y="420" width="82" height="3" rx="1.5" fill="url(#line)"/>
    <text x="613" y="450" fill="#7792A9" font-family="Inter,Segoe UI,Microsoft YaHei,sans-serif" font-size="9">批量任务进度</text>
    <text x="698" y="450" fill="#2D7AA3" font-family="Inter,Segoe UI,Microsoft YaHei,sans-serif" font-size="9" font-weight="700">75%</text>

    <rect x="770" y="132" width="324" height="385" rx="15" fill="#FFFFFF" stroke="#DCEBF5"/>
    <text x="793" y="160" fill="#294560" font-family="Inter,Segoe UI,Microsoft YaHei,sans-serif" font-size="12" font-weight="700">字幕编辑器</text>
    <text x="793" y="181" fill="#7792A9" font-family="Inter,Segoe UI,Microsoft YaHei,sans-serif" font-size="10">BV1xx411c7mD · P1</text>
    <rect x="793" y="200" width="62" height="24" rx="12" fill="#E7F7FF"/>
    <text x="808" y="216" fill="#168CC5" font-family="Inter,Segoe UI,Microsoft YaHei,sans-serif" font-size="10" font-weight="700">简体中文</text>
    <rect x="863" y="200" width="48" height="24" rx="12" fill="#F2F6FA"/>
    <text x="879" y="216" fill="#7792A9" font-family="Inter,Segoe UI,Microsoft YaHei,sans-serif" font-size="10">English</text>
    <rect x="793" y="246" width="278" height="184" rx="11" fill="#F8FBFD"/>
    <text x="812" y="273" fill="#4A667E" font-family="ui-monospace,Consolas,monospace" font-size="11">今天我们来聊聊一个</text>
    <text x="812" y="298" fill="#4A667E" font-family="ui-monospace,Consolas,monospace" font-size="11">很有意思的话题。</text>
    <text x="812" y="342" fill="#4A667E" font-family="ui-monospace,Consolas,monospace" font-size="11">字幕会在这里逐条出现，</text>
    <text x="812" y="367" fill="#4A667E" font-family="ui-monospace,Consolas,monospace" font-size="11">你可以马上校对和润色。</text>
    <rect x="812" y="392" width="110" height="4" rx="2" fill="#D9E8F1"/>
    <rect x="812" y="408" width="169" height="4" rx="2" fill="#D9E8F1"/>
    <rect x="793" y="454" width="112" height="30" rx="9" fill="#EEF7FD"/>
    <text x="815" y="473" fill="#2D7AA3" font-family="Inter,Segoe UI,Microsoft YaHei,sans-serif" font-size="10" font-weight="650">TXT 导出</text>
    <rect x="916" y="454" width="74" height="30" rx="9" fill="#1BA9E8"/>
    <text x="938" y="473" fill="white" font-family="Inter,Segoe UI,Microsoft YaHei,sans-serif" font-size="10" font-weight="650">复制</text>
  </g>

  <path d="M80 535H500" stroke="url(#line)" stroke-opacity="0.7"/>
  <text x="80" y="570" fill="#8AA7C1" font-family="Inter,Segoe UI,Microsoft YaHei,sans-serif" font-size="11" letter-spacing="1.6">SCAN  →  RESOLVE  →  EDIT  →  EXPORT</text>
</svg>
